<?xml version="1.0" encoding="utf-8"?>
<svg version="1.1" xmlns:xlink="http://www.w3.org/1999/xlink" width="12px" height="12px" xmlns="http://www.w3.org/2000/svg">
  <g transform="matrix(1 0 0 1 -13 -185 )">
    <path d="M 1.14782608695652 6  C 1.14782608695652 3.33130434782609  3.33130434782609 1.14782608695652  6 1.14782608695652  C 8.66869565217391 1.14782608695652  10.8521739130435 3.33130434782609  10.8521739130435 6  C 10.8521739130435 8.66869565217391  8.66869565217391 10.8521739130435  6 10.8521739130435  C 3.33130434782609 10.8521739130435  1.14782608695652 8.66869565217391  1.14782608695652 6  Z M 11.6608695652174 6  C 11.6608695652174 2.88652173913044  9.11347826086957 0.339130434782609  6 0.339130434782609  C 2.88652173913044 0.339130434782609  0.339130434782609 2.88652173913044  0.339130434782609 6  C 0.339130434782609 9.11347826086957  2.88652173913044 11.6608695652174  6 11.6608695652174  C 9.11347826086957 11.6608695652174  11.6608695652174 9.11347826086957  11.6608695652174 6  Z M 6 3.73565219947602  C 6 4.07062490643861  6.27154903216784 4.34217393860646  6.60652173913043 4.34217393860646  C 6.94149444609302 4.34217393860646  7.21304347826087 4.07062490643861  7.21304347826087 3.73565219947602  C 7.21304347826087 3.40067946695045  6.94149444609302 3.12913043478261  6.60652173913043 3.12913043478261  C 6.27154903216784 3.12913043478261  6 3.40067946695045  6 3.73565217391304  Z M 6.76826086956522 8.66869565217392  C 6.36391304347826 9.15391304347826  5.71695652173913 9.23478260869566  5.59565217391304 9.23478260869565  C 5.47434782608696 9.23478260869565  5.35304347826087 9.19434782608696  5.27217391304348 9.11347826086957  C 5.19130434782609 9.03260869565217  5.15086956521739 8.87086956521739  5.19130434782609 8.7495652173913  L 5.79782608695652 5.91913043478261  C 5.63608695652174 6.0404347826087  5.43391304347826 6  5.31260869565217 5.87869565217391  C 5.15086956521739 5.71695652173913  5.11043478260869 5.47434782608696  5.27217391304348 5.31260869565217  C 5.75739130434782 4.78695652173913  6.32347826086956 4.74652173913043  6.40434782608696 4.78695652173913  C 6.52565217391304 4.78695652173913  6.64695652173913 4.86782608695652  6.72782608695652 4.94869565217391  C 6.80869565217391 5.02956521739131  6.84913043478261 5.15086956521739  6.80869565217391 5.27217391304348  L 6.20217391304348 8.10260869565218  C 6.32347826086956 8.02173913043478  6.52565217391304 8.02173913043478  6.64695652173913 8.10260869565218  C 6.84913043478261 8.22391304347826  6.8895652173913 8.46652173913044  6.76826086956522 8.66869565217392  Z " fill-rule="nonzero" fill="#d9001b" stroke="none" transform="matrix(1 0 0 1 13 185 )" />
  </g>
</svg>