<?xml version="1.0" encoding="utf-8"?>
<svg version="1.1" xmlns:xlink="http://www.w3.org/1999/xlink" width="99px" height="10px" preserveAspectRatio="xMinYMid meet" viewBox="1474 496  99 8" xmlns="http://www.w3.org/2000/svg">
  <path d="M 1479 477  L 1479 495  A 5 5 0 0 0 1484 500 L 1563 500  A 5 5 0 0 1 1568 505 L 1568 510  " stroke-width="2" stroke="#0099cc" fill="none" />
  <path d="M 1479 475  A 3.5 3.5 0 0 0 1475.5 478.5 A 3.5 3.5 0 0 0 1479 482 A 3.5 3.5 0 0 0 1482.5 478.5 A 3.5 3.5 0 0 0 1479 475 Z M 1572.29289321881 504.892893218813  L 1568 509.185786437627  L 1563.70710678119 504.892893218813  L 1562.29289321881 506.307106781187  L 1567.29289321881 511.307106781187  L 1568 512.014213562373  L 1568.70710678119 511.307106781187  L 1573.70710678119 506.307106781187  L 1572.29289321881 504.892893218813  Z " fill-rule="nonzero" fill="#0099cc" stroke="none" />
</svg>