<?xml version="1.0" encoding="utf-8"?>
<svg version="1.1" xmlns:xlink="http://www.w3.org/1999/xlink" width="162px" height="10px" preserveAspectRatio="xMinYMid meet" viewBox="1474 615  162 8" xmlns="http://www.w3.org/2000/svg">
  <path d="M 1631 605  L 1631 614  A 5 5 0 0 1 1626 619 L 1484 619  A 5 5 0 0 0 1479 624 L 1479 634  " stroke-width="2" stroke="#0099cc" fill="none" />
  <path d="M 1631 603  A 3.5 3.5 0 0 0 1627.5 606.5 A 3.5 3.5 0 0 0 1631 610 A 3.5 3.5 0 0 0 1634.5 606.5 A 3.5 3.5 0 0 0 1631 603 Z M 1483.29289321881 628.892893218813  L 1479 633.185786437627  L 1474.70710678119 628.892893218813  L 1473.29289321881 630.307106781187  L 1478.29289321881 635.307106781187  L 1479 636.014213562373  L 1479.70710678119 635.307106781187  L 1484.70710678119 630.307106781187  L 1483.29289321881 628.892893218813  Z " fill-rule="nonzero" fill="#0099cc" stroke="none" />
</svg>