<?xml version="1.0" encoding="utf-8"?>
<svg version="1.1" xmlns:xlink="http://www.w3.org/1999/xlink" width="20px" height="21px" preserveAspectRatio="xMidYMin meet" viewBox="1580 79  18 21" xmlns="http://www.w3.org/2000/svg">
  <path d="M 1589 88  L 1589 95  A 5 5 0 0 0 1594 100 L 1680 100  A 5 5 0 0 1 1685 105 L 1685 115  " stroke-width="2" stroke="#0099cc" fill="none" />
  <path d="M 1589 86  A 3.5 3.5 0 0 0 1585.5 89.5 A 3.5 3.5 0 0 0 1589 93 A 3.5 3.5 0 0 0 1592.5 89.5 A 3.5 3.5 0 0 0 1589 86 Z M 1689.29289321881 109.892893218813  L 1685 114.185786437627  L 1680.70710678119 109.892893218813  L 1679.29289321881 111.307106781187  L 1684.29289321881 116.307106781187  L 1685 117.014213562373  L 1685.70710678119 116.307106781187  L 1690.70710678119 111.307106781187  L 1689.29289321881 109.892893218813  Z " fill-rule="nonzero" fill="#0099cc" stroke="none" />
</svg>