<?xml version="1.0" encoding="utf-8"?>
<svg version="1.1" xmlns:xlink="http://www.w3.org/1999/xlink" width="23px" height="10px" preserveAspectRatio="xMinYMid meet" viewBox="1505 71  23 8" xmlns="http://www.w3.org/2000/svg">
  <defs>
    <mask fill="white" id="clip28">
      <path d="M 1348.5 58  L 1425.5 58  L 1425.5 82  L 1348.5 82  Z M 1265 58  L 1538 58  L 1538 115  L 1265 115  Z " fill-rule="evenodd" />
    </mask>
  </defs>
  <path d="M 1275 103  L 1275 75  A 5 5 0 0 1 1280 70 L 1507.5 70  A 2.5 2.5 0 0 1 1510 72.5 A 2.5 2.5 0 0 0 1512.5 75 L 1526 75  " stroke-width="2" stroke="#0099cc" fill="none" mask="url(#clip28)" />
  <path d="M 1275 98  A 3.5 3.5 0 0 0 1271.5 101.5 A 3.5 3.5 0 0 0 1275 105 A 3.5 3.5 0 0 0 1278.5 101.5 A 3.5 3.5 0 0 0 1275 98 Z M 1520.89289321881 70.7071067811866  L 1525.18578643763 75  L 1520.89289321881 79.2928932188134  L 1522.30710678119 80.7071067811866  L 1527.30710678119 75.7071067811866  L 1528.01421356237 75  L 1527.30710678119 74.2928932188134  L 1522.30710678119 69.2928932188134  L 1520.89289321881 70.7071067811866  Z " fill-rule="nonzero" fill="#0099cc" stroke="none" mask="url(#clip28)" />
</svg>