<?xml version="1.0" encoding="utf-8"?>
<svg version="1.1" xmlns:xlink="http://www.w3.org/1999/xlink" width="20px" height="20px" preserveAspectRatio="xMinYMid meet" viewBox="1950 107  20 18" xmlns="http://www.w3.org/2000/svg">
  <path d="M 1730 88  L 1730 95  A 5 5 0 0 0 1735 100 L 1955 100  A 5 5 0 0 1 1960 105 L 1960 116  " stroke-width="2" stroke="#0099cc" fill="none" />
  <path d="M 1730 86  A 3.5 3.5 0 0 0 1726.5 89.5 A 3.5 3.5 0 0 0 1730 93 A 3.5 3.5 0 0 0 1733.5 89.5 A 3.5 3.5 0 0 0 1730 86 Z M 1964.29289321881 110.892893218813  L 1960 115.185786437627  L 1955.70710678119 110.892893218813  L 1954.29289321881 112.307106781187  L 1959.29289321881 117.307106781187  L 1960 118.014213562373  L 1960.70710678119 117.307106781187  L 1965.70710678119 112.307106781187  L 1964.29289321881 110.892893218813  Z " fill-rule="nonzero" fill="#0099cc" stroke="none" />
</svg>