<?xml version="1.0" encoding="utf-8"?>
<svg version="1.1" xmlns:xlink="http://www.w3.org/1999/xlink" width="20px" height="20px" preserveAspectRatio="xMinYMid meet" viewBox="1533 359  20 18" xmlns="http://www.w3.org/2000/svg">
  <path d="M 1503 370  L 1529 370  A 1 1 0 0 0 1530 369 A 1 1 0 0 1 1531 368 L 1543 368  " stroke-width="2" stroke="#0099cc" fill="none" />
  <path d="M 1504.5 366.5  A 3.5 3.5 0 0 0 1501 370 A 3.5 3.5 0 0 0 1504.5 373.5 A 3.5 3.5 0 0 0 1508 370 A 3.5 3.5 0 0 0 1504.5 366.5 Z M 1537.89289321881 363.707106781187  L 1542.18578643763 368  L 1537.89289321881 372.292893218813  L 1539.30710678119 373.707106781187  L 1544.30710678119 368.707106781187  L 1545.01421356237 368  L 1544.30710678119 367.292893218813  L 1539.30710678119 362.292893218813  L 1537.89289321881 363.707106781187  Z " fill-rule="nonzero" fill="#0099cc" stroke="none" />
</svg>