<?xml version="1.0" encoding="utf-8"?>
<svg version="1.1" xmlns:xlink="http://www.w3.org/1999/xlink" width="630px" height="10px" preserveAspectRatio="xMinYMid meet" viewBox="1385 266  630 8" xmlns="http://www.w3.org/2000/svg">
  <path d="M 1337 101  L 1385 101  A 5 5 0 0 1 1390 106 L 1390 265  A 5 5 0 0 0 1395 270 L 2005 270  A 5 5 0 0 1 2010 275 L 2010 430  A 5 5 0 0 0 2015 435 L 2020 435  " stroke-width="2" stroke="#0099cc" fill="none" />
  <path d="M 1338.5 97.5  A 3.5 3.5 0 0 0 1335 101 A 3.5 3.5 0 0 0 1338.5 104.5 A 3.5 3.5 0 0 0 1342 101 A 3.5 3.5 0 0 0 1338.5 97.5 Z M 2014.89289321881 430.707106781187  L 2019.18578643763 435  L 2014.89289321881 439.292893218813  L 2016.30710678119 440.707106781187  L 2021.30710678119 435.707106781187  L 2022.01421356237 435  L 2021.30710678119 434.292893218813  L 2016.30710678119 429.292893218813  L 2014.89289321881 430.707106781187  Z " fill-rule="nonzero" fill="#0099cc" stroke="none" />
</svg>