<?xml version="1.0" encoding="utf-8"?>
<svg version="1.1" xmlns:xlink="http://www.w3.org/1999/xlink" width="10px" height="24px" preserveAspectRatio="xMidYMin meet" viewBox="1474 1625  8 24" xmlns="http://www.w3.org/2000/svg">
  <path d="M 576 1661  L 576 1635  A 5 5 0 0 1 581 1630 L 1473 1630  A 5 5 0 0 1 1478 1635 L 1478 1647  " stroke-width="2" stroke="#0099cc" fill="none" />
  <path d="M 576 1656  A 3.5 3.5 0 0 0 572.5 1659.5 A 3.5 3.5 0 0 0 576 1663 A 3.5 3.5 0 0 0 579.5 1659.5 A 3.5 3.5 0 0 0 576 1656 Z M 1482.29289321881 1641.89289321881  L 1478 1646.18578643763  L 1473.70710678119 1641.89289321881  L 1472.29289321881 1643.30710678119  L 1477.29289321881 1648.30710678119  L 1478 1649.01421356237  L 1478.70710678119 1648.30710678119  L 1483.70710678119 1643.30710678119  L 1482.29289321881 1641.89289321881  Z " fill-rule="nonzero" fill="#0099cc" stroke="none" />
</svg>