<?xml version="1.0" encoding="utf-8"?>
<svg version="1.1" xmlns:xlink="http://www.w3.org/1999/xlink" width="10px" height="31px" preserveAspectRatio="xMidYMin meet" viewBox="569 2335  8 31" xmlns="http://www.w3.org/2000/svg">
  <path d="M 573 2364  L 573 2345  A 5 5 0 0 1 578 2340 L 1355 2340  A 5 5 0 0 1 1360 2345 L 1360 2354  " stroke-width="2" stroke="#0099cc" fill="none" />
  <path d="M 573 2359  A 3.5 3.5 0 0 0 569.5 2362.5 A 3.5 3.5 0 0 0 573 2366 A 3.5 3.5 0 0 0 576.5 2362.5 A 3.5 3.5 0 0 0 573 2359 Z M 1364.29289321881 2348.89289321881  L 1360 2353.18578643763  L 1355.70710678119 2348.89289321881  L 1354.29289321881 2350.30710678119  L 1359.29289321881 2355.30710678119  L 1360 2356.01421356237  L 1360.70710678119 2355.30710678119  L 1365.70710678119 2350.30710678119  L 1364.29289321881 2348.89289321881  Z " fill-rule="nonzero" fill="#0099cc" stroke="none" />
</svg>