<?xml version="1.0" encoding="utf-8"?>
<svg version="1.1" xmlns:xlink="http://www.w3.org/1999/xlink" width="10px" height="17px" preserveAspectRatio="xMidYMin meet" viewBox="1276 895  8 17" xmlns="http://www.w3.org/2000/svg">
  <path d="M 580 920  L 580 905  A 5 5 0 0 1 585 900 L 1275 900  A 5 5 0 0 1 1280 905 L 1280 910  " stroke-width="2" stroke="#0099cc" fill="none" />
  <path d="M 580 915  A 3.5 3.5 0 0 0 576.5 918.5 A 3.5 3.5 0 0 0 580 922 A 3.5 3.5 0 0 0 583.5 918.5 A 3.5 3.5 0 0 0 580 915 Z M 1284.29289321881 904.892893218813  L 1280 909.185786437627  L 1275.70710678119 904.892893218813  L 1274.29289321881 906.307106781187  L 1279.29289321881 911.307106781187  L 1280 912.014213562373  L 1280.70710678119 911.307106781187  L 1285.70710678119 906.307106781187  L 1284.29289321881 904.892893218813  Z " fill-rule="nonzero" fill="#0099cc" stroke="none" />
</svg>