<?xml version="1.0" encoding="utf-8"?>
<svg version="1.1" xmlns:xlink="http://www.w3.org/1999/xlink" width="7px" height="11px" xmlns="http://www.w3.org/2000/svg">
  <g transform="matrix(1 0 0 1 -1579 -2374 )">
    <path d="M 7 1.56947890818859  C 7 1.68775847808106  6.95720720720721 1.79011579818031  6.87162162162162 1.87655086848635  L 3.28378378378378 5.5  L 6.87162162162162 9.12344913151365  C 6.95720720720721 9.20988420181969  7 9.31224152191894  7 9.43052109181141  C 7 9.54880066170389  6.95720720720721 9.65115798180314  6.87162162162162 9.73759305210918  L 5.75 10.8703473945409  C 5.66441441441441 10.956782464847  5.56306306306306 11  5.44594594594595 11  C 5.32882882882883 11  5.22747747747748 10.956782464847  5.14189189189189 10.8703473945409  L 0.128378378378378 5.80707196029777  C 0.0427927927927929 5.72063688999173  0 5.61827956989247  0 5.5  C 0 5.38172043010753  0.0427927927927929 5.27936311000827  0.128378378378378 5.19292803970223  L 5.14189189189189 0.129652605459057  C 5.22747747747748 0.0432175351530185  5.32882882882883 0  5.44594594594595 0  C 5.56306306306306 0  5.66441441441441 0.0432175351530185  5.75 0.129652605459057  L 6.87162162162162 1.26240694789082  C 6.95720720720721 1.34884201819686  7 1.45119933829611  7 1.56947890818859  Z " fill-rule="nonzero" fill="#7f7f7f" stroke="none" transform="matrix(1 0 0 1 1579 2374 )" />
  </g>
</svg>