<?xml version="1.0" encoding="utf-8"?>
<svg version="1.1" xmlns:xlink="http://www.w3.org/1999/xlink" width="20px" height="21px" preserveAspectRatio="xMidYMin meet" viewBox="1750 1647  18 21" xmlns="http://www.w3.org/2000/svg">
  <defs>
    <mask fill="white" id="clip41">
      <path d="M 1682.5 1585  L 1787.5 1585  L 1787.5 1609  L 1682.5 1609  Z M 1666 1557  L 1787.5 1557  L 1787.5 1671  L 1666 1671  Z " fill-rule="evenodd" />
    </mask>
  </defs>
  <path d="M 1759 1659  L 1759 1602  A 5 5 0 0 0 1754 1597 L 1681 1597  A 5 5 0 0 1 1676 1592 L 1676 1569  " stroke-width="2" stroke="#0099cc" fill="none" mask="url(#clip41)" />
  <path d="M 1759 1654  A 3.5 3.5 0 0 0 1755.5 1657.5 A 3.5 3.5 0 0 0 1759 1661 A 3.5 3.5 0 0 0 1762.5 1657.5 A 3.5 3.5 0 0 0 1759 1654 Z M 1671.70710678119 1574.10710678119  L 1676 1569.81421356237  L 1680.29289321881 1574.10710678119  L 1681.70710678119 1572.69289321881  L 1676.70710678119 1567.69289321881  L 1676 1566.98578643763  L 1675.29289321881 1567.69289321881  L 1670.29289321881 1572.69289321881  L 1671.70710678119 1574.10710678119  Z " fill-rule="nonzero" fill="#0099cc" stroke="none" mask="url(#clip41)" />
</svg>