<?xml version="1.0" encoding="utf-8"?>
<svg version="1.1" xmlns:xlink="http://www.w3.org/1999/xlink" width="56px" height="16px" xmlns="http://www.w3.org/2000/svg">
  <g transform="matrix(1 0 0 1 -1715 -1169 )">
    <path d="M 1715.5 1173  A 3.5 3.5 0 0 1 1719 1169.5 L 1767 1169.5  A 3.5 3.5 0 0 1 1770.5 1173 L 1770.5 1181  A 3.5 3.5 0 0 1 1767 1184.5 L 1719 1184.5  A 3.5 3.5 0 0 1 1715.5 1181 L 1715.5 1173  Z " fill-rule="nonzero" fill="#0099ff" stroke="none" fill-opacity="0.0980392156862745" />
    <path d="M 1715.5 1173  A 3.5 3.5 0 0 1 1719 1169.5 L 1767 1169.5  A 3.5 3.5 0 0 1 1770.5 1173 L 1770.5 1181  A 3.5 3.5 0 0 1 1767 1184.5 L 1719 1184.5  A 3.5 3.5 0 0 1 1715.5 1181 L 1715.5 1173  Z " stroke-width="1" stroke="#a7d2f9" fill="none" />
  </g>
</svg>