<?xml version="1.0" encoding="utf-8"?>
<svg version="1.1" xmlns:xlink="http://www.w3.org/1999/xlink" width="50px" height="16px" xmlns="http://www.w3.org/2000/svg">
  <defs>
    <mask fill="white" id="clip22">
      <path d="M 0 12  L 0 4  C 0 1.75999999999999  1.75999999999999 0  4 0  L 46 0  C 48.24 0  50 1.75999999999999  50 4  L 50 12  C 50 14.24  48.24 16  46 16  L 37 16  L 4 16  C 1.75999999999999 16  0 14.24  0 12  Z " fill-rule="evenodd" />
    </mask>
  </defs>
  <g transform="matrix(1 0 0 1 -369 -401 )">
    <path d="M 0 12  L 0 4  C 0 1.75999999999999  1.75999999999999 0  4 0  L 46 0  C 48.24 0  50 1.75999999999999  50 4  L 50 12  C 50 14.24  48.24 16  46 16  L 37 16  L 4 16  C 1.75999999999999 16  0 14.24  0 12  Z " fill-rule="nonzero" fill="#0099ff" stroke="none" fill-opacity="0.0980392156862745" transform="matrix(1 0 0 1 369 401 )" />
    <path d="M 0 12  L 0 4  C 0 1.75999999999999  1.75999999999999 0  4 0  L 46 0  C 48.24 0  50 1.75999999999999  50 4  L 50 12  C 50 14.24  48.24 16  46 16  L 37 16  L 4 16  C 1.75999999999999 16  0 14.24  0 12  Z " stroke-width="2" stroke="#a7d2f9" fill="none" transform="matrix(1 0 0 1 369 401 )" mask="url(#clip22)" />
  </g>
</svg>