<?xml version="1.0" encoding="utf-8"?>
<svg version="1.1" xmlns:xlink="http://www.w3.org/1999/xlink" width="56px" height="16px" xmlns="http://www.w3.org/2000/svg">
  <g transform="matrix(1 0 0 1 -1715 -1169 )">
    <path d="M 1716 1173  A 3 3 0 0 1 1719 1170 L 1767 1170  A 3 3 0 0 1 1770 1173 L 1770 1181  A 3 3 0 0 1 1767 1184 L 1719 1184  A 3 3 0 0 1 1716 1181 L 1716 1173  Z " fill-rule="nonzero" fill="#e6a23c" stroke="none" fill-opacity="0.0980392156862745" />
    <path d="M 1715.5 1173  A 3.5 3.5 0 0 1 1719 1169.5 L 1767 1169.5  A 3.5 3.5 0 0 1 1770.5 1173 L 1770.5 1181  A 3.5 3.5 0 0 1 1767 1184.5 L 1719 1184.5  A 3.5 3.5 0 0 1 1715.5 1181 L 1715.5 1173  Z " stroke-width="1" stroke="#e6a23c" fill="none" stroke-opacity="0.2" />
  </g>
</svg>