<?xml version="1.0" encoding="utf-8"?>
<svg version="1.1" xmlns:xlink="http://www.w3.org/1999/xlink" width="75px" height="10px" preserveAspectRatio="xMinYMid meet" viewBox="1417 2230  75 8" xmlns="http://www.w3.org/2000/svg">
  <path d="M 1487 2141  L 1487 2229  A 5 5 0 0 1 1482 2234 L 1427 2234  A 5 5 0 0 0 1422 2239 L 1422 2405  " stroke-width="2" stroke="#0099cc" fill="none" />
  <path d="M 1487 2139  A 3.5 3.5 0 0 0 1483.5 2142.5 A 3.5 3.5 0 0 0 1487 2146 A 3.5 3.5 0 0 0 1490.5 2142.5 A 3.5 3.5 0 0 0 1487 2139 Z M 1426.29289321881 2399.89289321881  L 1422 2404.18578643763  L 1417.70710678119 2399.89289321881  L 1416.29289321881 2401.30710678119  L 1421.29289321881 2406.30710678119  L 1422 2407.01421356237  L 1422.70710678119 2406.30710678119  L 1427.70710678119 2401.30710678119  L 1426.29289321881 2399.89289321881  Z " fill-rule="nonzero" fill="#0099cc" stroke="none" />
</svg>