<?xml version="1.0" encoding="utf-8"?>
<svg version="1.1" xmlns:xlink="http://www.w3.org/1999/xlink" width="40px" height="10px" preserveAspectRatio="xMinYMid meet" viewBox="3701 2171  40 8" xmlns="http://www.w3.org/2000/svg">
  <path d="M 3690 2114  L 3701 2114  A 5 5 0 0 1 3706 2119 L 3706 2170  A 5 5 0 0 0 3711 2175 L 3739 2175  " stroke-width="2" stroke="#0099cc" fill="none" />
  <path d="M 3691.5 2110.5  A 3.5 3.5 0 0 0 3688 2114 A 3.5 3.5 0 0 0 3691.5 2117.5 A 3.5 3.5 0 0 0 3695 2114 A 3.5 3.5 0 0 0 3691.5 2110.5 Z M 3733.89289321881 2170.70710678119  L 3738.18578643763 2175  L 3733.89289321881 2179.29289321881  L 3735.30710678119 2180.70710678119  L 3740.30710678119 2175.70710678119  L 3741.01421356237 2175  L 3740.30710678119 2174.29289321881  L 3735.30710678119 2169.29289321881  L 3733.89289321881 2170.70710678119  Z " fill-rule="nonzero" fill="#0099cc" stroke="none" />
</svg>