<?xml version="1.0" encoding="utf-8"?>
<svg version="1.1" xmlns:xlink="http://www.w3.org/1999/xlink" width="223px" height="26px" xmlns="http://www.w3.org/2000/svg">
  <defs>
    <mask fill="white" id="clip16">
      <path d="M 0 26  L 0 0  L 223 0  L 223 26  L 102.813892348139 26  L 63.0714285714284 26  L 0 26  Z " fill-rule="evenodd" />
    </mask>
  </defs>
  <g transform="matrix(1 0 0 1 -3069 -3207 )">
    <path d="M 0 26  L 0 0  L 223 0  L 223 26  L 102.813892348139 26  L 63.0714285714284 26  L 0 26  Z " fill-rule="nonzero" fill="#ffffff" stroke="none" transform="matrix(1 0 0 1 3069 3207 )" />
    <path d="M 0 26  L 0 0  L 223 0  L 223 26  L 102.813892348139 26  L 63.0714285714284 26  L 0 26  Z " stroke-width="2" stroke="#c9c9c9" fill="none" transform="matrix(1 0 0 1 3069 3207 )" mask="url(#clip16)" />
  </g>
</svg>