<?xml version="1.0" encoding="utf-8"?>
<svg version="1.1" xmlns:xlink="http://www.w3.org/1999/xlink" width="20px" height="20px" preserveAspectRatio="xMinYMid meet" viewBox="2150 3657  20 18" xmlns="http://www.w3.org/2000/svg">
  <path d="M 1583 2582  L 1733 2582  A 5 5 0 0 1 1738 2587 L 1738 3661  A 5 5 0 0 0 1743 3666 L 2160 3666  " stroke-width="2" stroke="#0099cc" fill="none" />
  <path d="M 1584.5 2578.5  A 3.5 3.5 0 0 0 1581 2582 A 3.5 3.5 0 0 0 1584.5 2585.5 A 3.5 3.5 0 0 0 1588 2582 A 3.5 3.5 0 0 0 1584.5 2578.5 Z M 2154.89289321881 3661.70710678119  L 2159.18578643763 3666  L 2154.89289321881 3670.29289321881  L 2156.30710678119 3671.70710678119  L 2161.30710678119 3666.70710678119  L 2162.01421356237 3666  L 2161.30710678119 3665.29289321881  L 2156.30710678119 3660.29289321881  L 2154.89289321881 3661.70710678119  Z " fill-rule="nonzero" fill="#0099cc" stroke="none" />
</svg>