<?xml version="1.0" encoding="utf-8"?>
<svg version="1.1" xmlns:xlink="http://www.w3.org/1999/xlink" width="10px" height="126px" preserveAspectRatio="xMidYMin meet" viewBox="1445 247  8 126" xmlns="http://www.w3.org/2000/svg">
  <path d="M 1449 249  L 1449 363  A 5 5 0 0 0 1454 368 L 1476 368  " stroke-width="2" stroke="#0099cc" fill="none" />
  <path d="M 1449 247  A 3.5 3.5 0 0 0 1445.5 250.5 A 3.5 3.5 0 0 0 1449 254 A 3.5 3.5 0 0 0 1452.5 250.5 A 3.5 3.5 0 0 0 1449 247 Z M 1470.89289321881 363.707106781187  L 1475.18578643763 368  L 1470.89289321881 372.292893218813  L 1472.30710678119 373.707106781187  L 1477.30710678119 368.707106781187  L 1478.01421356237 368  L 1477.30710678119 367.292893218813  L 1472.30710678119 362.292893218813  L 1470.89289321881 363.707106781187  Z " fill-rule="nonzero" fill="#0099cc" stroke="none" />
</svg>