<?xml version="1.0" encoding="utf-8"?>
<svg version="1.1" xmlns:xlink="http://www.w3.org/1999/xlink" width="14px" height="14px" xmlns="http://www.w3.org/2000/svg">
  <g>
    <path d="M 1.3391304347826 7  C 1.3391304347826 3.88652173913044  3.88652173913043 1.33913043478259  7 1.33913043478259  C 10.1134782608696 1.33913043478259  12.6608695652174 3.88652173913044  12.6608695652174 7  C 12.6608695652174 10.1134782608696  10.1134782608696 12.6608695652174  7 12.6608695652174  C 3.88652173913043 12.6608695652174  1.3391304347826 10.1134782608696  1.3391304347826 7  Z M 13.604347826087 7  C 13.604347826087 3.36760869565217  10.6323913043478 0.395652173913049  7 0.395652173913049  C 3.36760869565218 0.395652173913049  0.395652173913049 3.36760869565217  0.395652173913049 7  C 0.395652173913049 10.6323913043478  3.36760869565218 13.604347826087  7 13.604347826087  C 10.6323913043478 13.604347826087  13.604347826087 10.6323913043478  13.604347826087 7  Z M 7 4.35826089938871  C 7 4.74906239084504  7.31680720419581 5.06586959504085  7.70760869565217 5.06586959504085  C 7.93166448138376 5.06586959504085  8.13139833385701 4.96173501977177  8.26105176798939 4.7992243543161  C 8.35754181533831 4.67828145828366  8.41521739130435 4.52500660511345  8.41521739130435 4.35826089938871  C 8.41521739130435 3.96745937810886  8.09841018710853 3.65065217391304  7.70760869565217 3.65065217391304  C 7.31680720419581 3.65065217391304  7 3.96745937810886  7 4.35826086956524  Z M 7.89630434782609 10.1134782608696  C 7.4245652173913 10.6795652173913  6.66978260869566 10.7739130434783  6.52826086956522 10.7739130434783  C 6.38673913043478 10.7739130434783  6.24521739130435 10.7267391304348  6.15086956521739 10.6323913043478  C 6.05652173913043 10.5380434782609  6.00934782608695 10.349347826087  6.05652173913043 10.2078260869565  L 6.7641304347826 6.90565217391304  C 6.5754347826087 7.04717391304348  6.3395652173913 7  6.19804347826087 6.85847826086956  C 6.00934782608695 6.66978260869564  5.96217391304347 6.38673913043476  6.15086956521739 6.19804347826084  C 6.71695652173912 5.58478260869566  7.37739130434782 5.53760869565218  7.47173913043478 5.58478260869566  C 7.61326086956521 5.58478260869566  7.75478260869565 5.67913043478262  7.84913043478261 5.77347826086958  C 7.94347826086957 5.86782608695654  7.99065217391305 6.00934782608698  7.94347826086957 6.15086956521742  L 7.23586956521739 9.45304347826089  C 7.37739130434782 9.35869565217394  7.61326086956522 9.35869565217394  7.75478260869565 9.45304347826089  C 7.99065217391305 9.59456521739128  8.03782608695653 9.87760869565216  7.89630434782609 10.1134782608696  Z " fill-rule="nonzero" fill="#ff0000" stroke="none" />
  </g>
</svg>