<?xml version="1.0" encoding="utf-8"?>
<svg version="1.1" xmlns:xlink="http://www.w3.org/1999/xlink" width="38px" height="10px" preserveAspectRatio="xMinYMid meet" viewBox="1497 2069  38 8" xmlns="http://www.w3.org/2000/svg">
  <path d="M 1502 2043  L 1502 2068  A 5 5 0 0 0 1507 2073 L 1533 2073  " stroke-width="2" stroke="#0099cc" fill="none" />
  <path d="M 1502 2041  A 3.5 3.5 0 0 0 1498.5 2044.5 A 3.5 3.5 0 0 0 1502 2048 A 3.5 3.5 0 0 0 1505.5 2044.5 A 3.5 3.5 0 0 0 1502 2041 Z M 1527.89289321881 2068.70710678119  L 1532.18578643763 2073  L 1527.89289321881 2077.29289321881  L 1529.30710678119 2078.70710678119  L 1534.30710678119 2073.70710678119  L 1535.01421356237 2073  L 1534.30710678119 2072.29289321881  L 1529.30710678119 2067.29289321881  L 1527.89289321881 2068.70710678119  Z " fill-rule="nonzero" fill="#0099cc" stroke="none" />
</svg>