<?xml version="1.0" encoding="utf-8"?>
<svg version="1.1" xmlns:xlink="http://www.w3.org/1999/xlink" width="138px" height="10px" preserveAspectRatio="xMinYMid meet" viewBox="1462 1660  138 8" xmlns="http://www.w3.org/2000/svg">
  <path d="M 1467 1645  L 1467 1659  A 5 5 0 0 0 1472 1664 L 1598 1664  " stroke-width="2" stroke="#0099cc" fill="none" />
  <path d="M 1467 1643  A 3.5 3.5 0 0 0 1463.5 1646.5 A 3.5 3.5 0 0 0 1467 1650 A 3.5 3.5 0 0 0 1470.5 1646.5 A 3.5 3.5 0 0 0 1467 1643 Z M 1592.89289321881 1659.70710678119  L 1597.18578643763 1664  L 1592.89289321881 1668.29289321881  L 1594.30710678119 1669.70710678119  L 1599.30710678119 1664.70710678119  L 1600.01421356237 1664  L 1599.30710678119 1663.29289321881  L 1594.30710678119 1658.29289321881  L 1592.89289321881 1659.70710678119  Z " fill-rule="nonzero" fill="#0099cc" stroke="none" />
</svg>