<?xml version="1.0" encoding="utf-8"?>
<svg version="1.1" xmlns:xlink="http://www.w3.org/1999/xlink" width="20px" height="21px" preserveAspectRatio="xMidYMin meet" viewBox="1447 548  18 21" xmlns="http://www.w3.org/2000/svg">
  <path d="M 1456 557  L 1456 783  A 5 5 0 0 0 1461 788 L 1527 788  " stroke-width="2" stroke="#0099cc" fill="none" />
  <path d="M 1456 555  A 3.5 3.5 0 0 0 1452.5 558.5 A 3.5 3.5 0 0 0 1456 562 A 3.5 3.5 0 0 0 1459.5 558.5 A 3.5 3.5 0 0 0 1456 555 Z M 1521.89289321881 783.707106781187  L 1526.18578643763 788  L 1521.89289321881 792.292893218813  L 1523.30710678119 793.707106781187  L 1528.30710678119 788.707106781187  L 1529.01421356237 788  L 1528.30710678119 787.292893218813  L 1523.30710678119 782.292893218813  L 1521.89289321881 783.707106781187  Z " fill-rule="nonzero" fill="#0099cc" stroke="none" />
</svg>