<?xml version="1.0" encoding="utf-8"?>
<svg version="1.1" xmlns:xlink="http://www.w3.org/1999/xlink" width="187px" height="26px" xmlns="http://www.w3.org/2000/svg">
  <defs>
    <mask fill="white" id="clip11">
      <path d="M 0 24  L 0 2  C 0 0.879999999999995  0.831111111111107 0  1.88888888888889 0  L 185.111111111111 0  C 186.168888888889 0  187 0.879999999999995  187 2  L 187 24  C 187 25.12  186.168888888889 26  185.111111111111 26  L 59.1023391812865 26  L 1.88888888888889 26  C 0.831111111111107 26  0 25.12  0 24  Z " fill-rule="evenodd" />
    </mask>
  </defs>
  <g transform="matrix(1 0 0 1 -199 -143 )">
    <path d="M 0 24  L 0 2  C 0 0.879999999999995  0.831111111111107 0  1.88888888888889 0  L 185.111111111111 0  C 186.168888888889 0  187 0.879999999999995  187 2  L 187 24  C 187 25.12  186.168888888889 26  185.111111111111 26  L 59.1023391812865 26  L 1.88888888888889 26  C 0.831111111111107 26  0 25.12  0 24  Z " fill-rule="nonzero" fill="#ffffff" stroke="none" transform="matrix(1 0 0 1 199 143 )" />
    <path d="M 0 24  L 0 2  C 0 0.879999999999995  0.831111111111107 0  1.88888888888889 0  L 185.111111111111 0  C 186.168888888889 0  187 0.879999999999995  187 2  L 187 24  C 187 25.12  186.168888888889 26  185.111111111111 26  L 59.1023391812865 26  L 1.88888888888889 26  C 0.831111111111107 26  0 25.12  0 24  Z " stroke-width="2" stroke="#adb0c1" fill="none" transform="matrix(1 0 0 1 199 143 )" mask="url(#clip11)" />
  </g>
</svg>