<?xml version="1.0" encoding="utf-8"?>
<svg version="1.1" xmlns:xlink="http://www.w3.org/1999/xlink" width="22px" height="10px" preserveAspectRatio="xMinYMid meet" viewBox="1415 468  22 8" xmlns="http://www.w3.org/2000/svg">
  <path d="M 1334 197  L 1415 197  A 5 5 0 0 1 1420 202 L 1420 467  A 5 5 0 0 0 1425 472 L 1435 472  " stroke-width="2" stroke="#0099cc" fill="none" />
  <path d="M 1335.5 193.5  A 3.5 3.5 0 0 0 1332 197 A 3.5 3.5 0 0 0 1335.5 200.5 A 3.5 3.5 0 0 0 1339 197 A 3.5 3.5 0 0 0 1335.5 193.5 Z M 1429.89289321881 467.707106781187  L 1434.18578643763 472  L 1429.89289321881 476.292893218813  L 1431.30710678119 477.707106781187  L 1436.30710678119 472.707106781187  L 1437.01421356237 472  L 1436.30710678119 471.292893218813  L 1431.30710678119 466.292893218813  L 1429.89289321881 467.707106781187  Z " fill-rule="nonzero" fill="#0099cc" stroke="none" />
</svg>