<?xml version="1.0" encoding="utf-8"?>
<svg version="1.1" xmlns:xlink="http://www.w3.org/1999/xlink" width="203px" height="10px" preserveAspectRatio="xMinYMid meet" viewBox="1234 468  203 8" xmlns="http://www.w3.org/2000/svg">
  <path d="M 1239 450  L 1239 467  A 5 5 0 0 0 1244 472 L 1435 472  " stroke-width="2" stroke="#0099cc" fill="none" />
  <path d="M 1239 448  A 3.5 3.5 0 0 0 1235.5 451.5 A 3.5 3.5 0 0 0 1239 455 A 3.5 3.5 0 0 0 1242.5 451.5 A 3.5 3.5 0 0 0 1239 448 Z M 1429.89289321881 467.707106781187  L 1434.18578643763 472  L 1429.89289321881 476.292893218813  L 1431.30710678119 477.707106781187  L 1436.30710678119 472.707106781187  L 1437.01421356237 472  L 1436.30710678119 471.292893218813  L 1431.30710678119 466.292893218813  L 1429.89289321881 467.707106781187  Z " fill-rule="nonzero" fill="#0099cc" stroke="none" />
</svg>