<?xml version="1.0" encoding="utf-8"?>
<svg version="1.1" xmlns:xlink="http://www.w3.org/1999/xlink" width="20px" height="21px" preserveAspectRatio="xMidYMin meet" viewBox="1149 441  18 21" xmlns="http://www.w3.org/2000/svg">
  <path d="M 1158 450  L 1158 895  A 5 5 0 0 0 1163 900 L 1435 900  " stroke-width="2" stroke="#0099cc" fill="none" />
  <path d="M 1158 448  A 3.5 3.5 0 0 0 1154.5 451.5 A 3.5 3.5 0 0 0 1158 455 A 3.5 3.5 0 0 0 1161.5 451.5 A 3.5 3.5 0 0 0 1158 448 Z M 1429.89289321881 895.707106781187  L 1434.18578643763 900  L 1429.89289321881 904.292893218813  L 1431.30710678119 905.707106781187  L 1436.30710678119 900.707106781187  L 1437.01421356237 900  L 1436.30710678119 899.292893218813  L 1431.30710678119 894.292893218813  L 1429.89289321881 895.707106781187  Z " fill-rule="nonzero" fill="#0099cc" stroke="none" />
</svg>