<?xml version="1.0" encoding="utf-8"?>
<svg version="1.1" xmlns:xlink="http://www.w3.org/1999/xlink" width="52px" height="10px" preserveAspectRatio="xMinYMid meet" viewBox="1333 232  52 8" xmlns="http://www.w3.org/2000/svg">
  <path d="M 1335 236  L 1375 236  A 5 5 0 0 1 1380 241 L 1380 796  A 5 5 0 0 1 1375 801 L 777 801  A 5 5 0 0 0 772 806 L 772 918  " stroke-width="2" stroke="#0099cc" fill="none" />
  <path d="M 1336.5 232.5  A 3.5 3.5 0 0 0 1333 236 A 3.5 3.5 0 0 0 1336.5 239.5 A 3.5 3.5 0 0 0 1340 236 A 3.5 3.5 0 0 0 1336.5 232.5 Z M 776.292893218813 912.892893218813  L 772 917.185786437627  L 767.707106781187 912.892893218813  L 766.292893218813 914.307106781187  L 771.292893218813 919.307106781187  L 772 920.014213562373  L 772.707106781187 919.307106781187  L 777.707106781187 914.307106781187  L 776.292893218813 912.892893218813  Z " fill-rule="nonzero" fill="#0099cc" stroke="none" />
</svg>