<?xml version="1.0" encoding="utf-8"?>
<svg version="1.1" xmlns:xlink="http://www.w3.org/1999/xlink" width="50px" height="16px" xmlns="http://www.w3.org/2000/svg">
  <g transform="matrix(1 0 0 1 -576 -147 )">
    <path d="M 577 151  A 3 3 0 0 1 580 148 L 622 148  A 3 3 0 0 1 625 151 L 625 159  A 3 3 0 0 1 622 162 L 580 162  A 3 3 0 0 1 577 159 L 577 151  Z " fill-rule="nonzero" fill="#e6a23c" stroke="none" fill-opacity="0.0980392156862745" />
    <path d="M 576.5 151  A 3.5 3.5 0 0 1 580 147.5 L 622 147.5  A 3.5 3.5 0 0 1 625.5 151 L 625.5 159  A 3.5 3.5 0 0 1 622 162.5 L 580 162.5  A 3.5 3.5 0 0 1 576.5 159 L 576.5 151  Z " stroke-width="1" stroke="#e6a23c" fill="none" stroke-opacity="0.2" />
  </g>
</svg>