<?xml version="1.0" encoding="utf-8"?>
<svg version="1.1" xmlns:xlink="http://www.w3.org/1999/xlink" width="18px" height="20px" xmlns="http://www.w3.org/2000/svg">
  <g transform="matrix(1 0 0 1 -856 -274 )">
    <path d="M 7.90745192307692 1.86941964285714  C 7.640625 1.57552083333333  7.3125 1.42857142857143  6.92307692307692 1.42857142857143  C 6.54086538461539 1.42857142857143  6.21454326923077 1.56808035714286  5.94411057692308 1.84709821428571  C 5.67367788461539 2.12611607142857  5.53846153846154 2.46279761904762  5.53846153846154 2.85714285714286  L 5.53846153846154 8.57142857142857  L 5.53846153846154 12.8571428571429  L 3.90504807692308 10.6026785714286  C 3.609375 10.2008928571429  3.22355769230769 10  2.74759615384615 10  C 2.37259615384615 10  2.05168269230769 10.141369047619  1.78485576923077 10.4241071428571  C 1.51802884615385 10.7068452380952  1.38461538461538 11.0416666666667  1.38461538461538 11.4285714285714  C 1.38461538461538 11.7485119047619  1.47836538461538 12.0349702380952  1.66586538461538 12.2879464285714  L 5.81971153846154 18.0022321428571  C 6.09375 18.3816964285714  6.46153846153846 18.5714285714286  6.92307692307692 18.5714285714286  L 14.6899038461538 18.5714285714286  C 14.8485576923077 18.5714285714286  14.9909855769231 18.5212053571429  15.1171875 18.4207589285714  C 15.2433894230769 18.3203125  15.3245192307692 18.1919642857143  15.3605769230769 18.0357142857143  L 16.3557692307692 13.9285714285714  C 16.5288461538462 13.2142857142857  16.6153846153846 12.4925595238095  16.6153846153846 11.7633928571429  L 16.6153846153846 9.34151785714286  C 16.6153846153846 9.03645833333333  16.5144230769231 8.77232142857143  16.3125 8.54910714285714  C 16.1105769230769 8.32589285714286  15.8653846153846 8.21428571428571  15.5769230769231 8.21428571428571  C 15.2884615384615 8.21428571428571  15.0432692307692 8.31845238095238  14.8413461538462 8.52678571428571  C 14.6394230769231 8.73511904761905  14.5384615384615 8.98809523809524  14.5384615384615 9.28571428571429  L 14.1923076923077 9.28571428571429  L 14.1923076923077 8.60491071428571  C 14.1923076923077 8.24776785714286  14.0769230769231 7.94456845238095  13.8461538461538 7.6953125  C 13.6153846153846 7.44605654761905  13.3269230769231 7.32142857142857  12.9807692307692 7.32142857142857  C 12.6490384615385 7.32142857142857  12.3641826923077 7.44419642857143  12.1262019230769 7.68973214285714  C 11.8882211538462 7.93526785714286  11.7692307692308 8.22916666666666  11.7692307692308 8.57142857142857  L 11.7692307692308 9.28571428571429  L 11.4230769230769 9.28571428571429  L 11.4230769230769 8.28125  C 11.4230769230769 7.87202380952381  11.2896634615385 7.52046130952381  11.0228365384615 7.2265625  C 10.7560096153846 6.93266369047619  10.4278846153846 6.78571428571429  10.0384615384615 6.78571428571429  C 9.65625 6.78571428571429  9.32992788461538 6.92522321428571  9.05949519230769 7.20424107142857  C 8.7890625 7.48325892857143  8.65384615384615 7.81994047619047  8.65384615384615 8.21428571428571  L 8.65384615384615 9.28571428571429  L 8.30769230769231 9.28571428571429  L 8.30769230769231 2.92410714285714  C 8.30769230769231 2.51488095238095  8.17427884615384 2.16331845238095  7.90745192307692 1.86941964285714  Z M 4.96514423076923 0.837053571428572  C 5.50600961538462 0.279017857142858  6.15865384615385 0  6.92307692307692 0  C 7.69471153846154 0  8.34915865384616 0.288318452380953  8.88641826923077 0.864955357142858  C 9.42367788461539 1.44159226190476  9.69230769230769 2.12797619047619  9.69230769230769 2.92410714285714  L 9.69230769230769 5.37946428571429  C 9.85096153846154 5.36458333333333  9.96634615384616 5.35714285714286  10.0384615384615 5.35714285714286  C 10.7524038461538 5.35714285714286  11.3762019230769 5.61383928571429  11.9098557692308 6.12723214285714  C 12.2487980769231 5.97098214285714  12.6057692307692 5.89285714285714  12.9807692307692 5.89285714285714  C 13.7956730769231 5.89285714285714  14.4591346153846 6.21651785714286  14.9711538461538 6.86383928571429  C 15.1658653846154 6.81175595238095  15.3677884615385 6.78571428571429  15.5769230769231 6.78571428571429  C 16.2548076923077 6.78571428571429  16.828125 7.03683035714286  17.296875 7.5390625  C 17.765625 8.04129464285714  18 8.64211309523809  18 9.34151785714286  L 18 11.7633928571429  C 18 12.6264880952381  17.8990384615385 13.4635416666667  17.6971153846154 14.2745535714286  L 16.7019230769231 18.3816964285714  C 16.5865384615385 18.8578869047619  16.3413461538462 19.2466517857143  15.9663461538462 19.5479910714286  C 15.5913461538462 19.8493303571429  15.1658653846154 20  14.6899038461538 20  L 6.92307692307692 20  C 6.49038461538461 20  6.07752403846154 19.897693452381  5.68449519230769 19.6930803571429  C 5.29146634615385 19.4884672619048  4.96514423076923 19.2113095238095  4.70552884615385 18.8616071428571  L 0.551682692307692 13.1473214285714  C 0.183894230769231 12.641369047619  0 12.0684523809524  0 11.4285714285714  C 0 10.6473214285714  0.268629807692308 9.97581845238095  0.805889423076923 9.4140625  C 1.34314903846154 8.85230654761905  1.99038461538462 8.57142857142857  2.74759615384615 8.57142857142857  C 3.25961538461539 8.57142857142857  3.72836538461539 8.70163690476191  4.15384615384615 8.96205357142857  L 4.15384615384615 2.85714285714286  C 4.15384615384615 2.06845238095238  4.42427884615385 1.39508928571429  4.96514423076923 0.837053571428572  Z M 7.96153846153846 15.7142857142857  L 8.30769230769231 15.7142857142857  L 8.30769230769231 11.4285714285714  L 7.96153846153846 11.4285714285714  L 7.96153846153846 15.7142857142857  Z M 10.7307692307692 15.7142857142857  L 11.0769230769231 15.7142857142857  L 11.0769230769231 11.4285714285714  L 10.7307692307692 11.4285714285714  L 10.7307692307692 15.7142857142857  Z M 13.5 15.7142857142857  L 13.8461538461538 15.7142857142857  L 13.8461538461538 11.4285714285714  L 13.5 11.4285714285714  L 13.5 15.7142857142857  Z " fill-rule="nonzero" fill="#000000" stroke="none" transform="matrix(1 0 0 1 856 274 )" />
  </g>
</svg>