<?xml version="1.0" encoding="utf-8"?>
<svg version="1.1" xmlns:xlink="http://www.w3.org/1999/xlink" width="20px" height="21px" preserveAspectRatio="xMidYMin meet" viewBox="1440 323  18 21" xmlns="http://www.w3.org/2000/svg">
  <path d="M 1449 332  L 1449 367  A 5 5 0 0 0 1454 372 L 1472 372  " stroke-width="2" stroke="#0099cc" fill="none" />
  <path d="M 1449 330  A 3.5 3.5 0 0 0 1445.5 333.5 A 3.5 3.5 0 0 0 1449 337 A 3.5 3.5 0 0 0 1452.5 333.5 A 3.5 3.5 0 0 0 1449 330 Z M 1466.89289321881 367.707106781187  L 1471.18578643763 372  L 1466.89289321881 376.292893218813  L 1468.30710678119 377.707106781187  L 1473.30710678119 372.707106781187  L 1474.01421356237 372  L 1473.30710678119 371.292893218813  L 1468.30710678119 366.292893218813  L 1466.89289321881 367.707106781187  Z " fill-rule="nonzero" fill="#0099cc" stroke="none" />
</svg>