<?xml version="1.0" encoding="utf-8"?>
<svg version="1.1" xmlns:xlink="http://www.w3.org/1999/xlink" width="791px" height="10px" preserveAspectRatio="xMinYMid meet" viewBox="1329 114  791 8" xmlns="http://www.w3.org/2000/svg">
  <path d="M 1331 118  L 2110 118  A 5 5 0 0 1 2115 123 L 2115 142  " stroke-width="2" stroke="#0099cc" fill="none" />
  <path d="M 1332.5 114.5  A 3.5 3.5 0 0 0 1329 118 A 3.5 3.5 0 0 0 1332.5 121.5 A 3.5 3.5 0 0 0 1336 118 A 3.5 3.5 0 0 0 1332.5 114.5 Z M 2119.29289321881 136.892893218813  L 2115 141.185786437627  L 2110.70710678119 136.892893218813  L 2109.29289321881 138.307106781187  L 2114.29289321881 143.307106781187  L 2115 144.014213562373  L 2115.70710678119 143.307106781187  L 2120.70710678119 138.307106781187  L 2119.29289321881 136.892893218813  Z " fill-rule="nonzero" fill="#0099cc" stroke="none" />
</svg>