<?xml version="1.0" encoding="utf-8"?>
<svg version="1.1" xmlns:xlink="http://www.w3.org/1999/xlink" width="20px" height="21px" preserveAspectRatio="xMidYMin meet" viewBox="1239 358  18 21" xmlns="http://www.w3.org/2000/svg">
  <path d="M 1248 367  L 1248 484  A 5 5 0 0 0 1253 489 L 1394 489  " stroke-width="2" stroke="#0099cc" fill="none" />
  <path d="M 1248 365  A 3.5 3.5 0 0 0 1244.5 368.5 A 3.5 3.5 0 0 0 1248 372 A 3.5 3.5 0 0 0 1251.5 368.5 A 3.5 3.5 0 0 0 1248 365 Z M 1388.89289321881 484.707106781187  L 1393.18578643763 489  L 1388.89289321881 493.292893218813  L 1390.30710678119 494.707106781187  L 1395.30710678119 489.707106781187  L 1396.01421356237 489  L 1395.30710678119 488.292893218813  L 1390.30710678119 483.292893218813  L 1388.89289321881 484.707106781187  Z " fill-rule="nonzero" fill="#0099cc" stroke="none" />
</svg>