<?xml version="1.0" encoding="utf-8"?>
<svg version="1.1" xmlns:xlink="http://www.w3.org/1999/xlink" width="198px" height="26px" xmlns="http://www.w3.org/2000/svg">
  <defs>
    <mask fill="white" id="clip6">
      <path d="M 0 24  L 0 2  C 0 0.879999999999995  0.879999999999996 0  2 0  L 196 0  C 197.12 0  198 0.879999999999995  198 2  L 198 24  C 198 25.12  197.12 26  196 26  L 62.578947368421 26  L 2 26  C 0.879999999999996 26  0 25.12  0 24  Z " fill-rule="evenodd" />
    </mask>
  </defs>
  <g transform="matrix(1 0 0 1 -219 -106 )">
    <path d="M 0 24  L 0 2  C 0 0.879999999999995  0.879999999999996 0  2 0  L 196 0  C 197.12 0  198 0.879999999999995  198 2  L 198 24  C 198 25.12  197.12 26  196 26  L 62.578947368421 26  L 2 26  C 0.879999999999996 26  0 25.12  0 24  Z " fill-rule="nonzero" fill="#ffffff" stroke="none" transform="matrix(1 0 0 1 219 106 )" />
    <path d="M 0 24  L 0 2  C 0 0.879999999999995  0.879999999999996 0  2 0  L 196 0  C 197.12 0  198 0.879999999999995  198 2  L 198 24  C 198 25.12  197.12 26  196 26  L 62.578947368421 26  L 2 26  C 0.879999999999996 26  0 25.12  0 24  Z " stroke-width="2" stroke="#adb0c1" fill="none" transform="matrix(1 0 0 1 219 106 )" mask="url(#clip6)" />
  </g>
</svg>