<?xml version="1.0" encoding="utf-8"?>
<svg version="1.1" xmlns:xlink="http://www.w3.org/1999/xlink" width="10px" height="13px" xmlns="http://www.w3.org/2000/svg">
  <g transform="matrix(1 0 0 1 -2193 -585 )">
    <path d="M 9.84182776367188 12.7918375253906  C 10.050771328125 12.5202108916016  10.050771328125 12.0759617138672  9.83987501953125 11.8043350927734  L 5.78793204101563 6.53427065332031  L 9.83987501953125 1.26674478125  C 9.94532317382813 1.12966218066406  9.99804725585937 0.951962514648438  9.99804725585937 0.771724268554688  C 9.99804725585937 0.594024602539063  9.94532317382813 0.413786369140625  9.83987501953125 0.276703768554688  C 9.6289787109375 0.00253856738281252  9.28920131835937 0.00253856738281252  9.07830501953125 0.276703768554688  L 5.02636204101563 5.54676820800781  L 0.9744190625 0.276703768554688  C 0.76352275390625 0.0025385673828125  0.423745361328125 0.0025385673828125  0.212849052734375 0.276703768554688  C 0.00195274414062502 0.550868969726563  0.00195274414062502 0.992579580078125  0.212849052734375 1.26674478125  L 4.26674477539063 6.53427065332031  L 0.212849052734375 11.8043350927734  C 0.00195274414062502 12.0785002939453  0.00195274414062502 12.5202109042969  0.212849052734375 12.7943760927734  C 0.423745361328125 13.06854128125  0.76352275390625 13.0685412939453  0.9744190625 12.7943760927734  L 5.02636204101563 7.52431165332031  L 9.08025776367188 12.7918375253906  C 9.18570591796875 12.9289201259766  9.32239796875 12.9974614326172  9.46104276367188 12.9974614326172  C 9.59773481445312 12.9974614326172  9.736379609375 12.9289201259766  9.84182776367188 12.7918375253906  Z " fill-rule="nonzero" fill="#aaaaaa" stroke="none" transform="matrix(1 0 0 1 2193 585 )" />
  </g>
</svg>