<?xml version="1.0" encoding="utf-8"?>
<svg version="1.1" xmlns:xlink="http://www.w3.org/1999/xlink" width="10px" height="83px" preserveAspectRatio="xMidYMin meet" viewBox="1689 608  8 83" xmlns="http://www.w3.org/2000/svg">
  <path d="M 1638 613  L 1688 613  A 5 5 0 0 1 1693 618 L 1693 681  A 5 5 0 0 0 1698 686 L 1788 686  " stroke-width="2" stroke="#0099cc" fill="none" />
  <path d="M 1639.5 609.5  A 3.5 3.5 0 0 0 1636 613 A 3.5 3.5 0 0 0 1639.5 616.5 A 3.5 3.5 0 0 0 1643 613 A 3.5 3.5 0 0 0 1639.5 609.5 Z M 1782.89289321881 681.707106781187  L 1787.18578643763 686  L 1782.89289321881 690.292893218813  L 1784.30710678119 691.707106781187  L 1789.30710678119 686.707106781187  L 1790.01421356237 686  L 1789.30710678119 685.292893218813  L 1784.30710678119 680.292893218813  L 1782.89289321881 681.707106781187  Z " fill-rule="nonzero" fill="#0099cc" stroke="none" />
</svg>