<?xml version="1.0" encoding="utf-8"?>
<svg version="1.1" xmlns:xlink="http://www.w3.org/1999/xlink" width="389px" height="10px" preserveAspectRatio="xMinYMid meet" viewBox="1303 123  389 8" xmlns="http://www.w3.org/2000/svg">
  <path d="M 1305 127  L 1682 127  A 5 5 0 0 1 1687 132 L 1687 294  A 5 5 0 0 0 1692 299 L 1730 299  " stroke-width="2" stroke="#0099cc" fill="none" />
  <path d="M 1306.5 123.5  A 3.5 3.5 0 0 0 1303 127 A 3.5 3.5 0 0 0 1306.5 130.5 A 3.5 3.5 0 0 0 1310 127 A 3.5 3.5 0 0 0 1306.5 123.5 Z M 1724.89289321881 294.707106781187  L 1729.18578643763 299  L 1724.89289321881 303.292893218813  L 1726.30710678119 304.707106781187  L 1731.30710678119 299.707106781187  L 1732.01421356237 299  L 1731.30710678119 298.292893218813  L 1726.30710678119 293.292893218813  L 1724.89289321881 294.707106781187  Z " fill-rule="nonzero" fill="#0099cc" stroke="none" />
</svg>