<?xml version="1.0" encoding="utf-8"?>
<svg version="1.1" xmlns:xlink="http://www.w3.org/1999/xlink" width="21px" height="20px" preserveAspectRatio="xMinYMid meet" viewBox="1221 358  21 18" xmlns="http://www.w3.org/2000/svg">
  <path d="M 1230 367  L 1460 367  A 5 5 0 0 1 1465 372 L 1465 748  A 5 5 0 0 0 1470 753 L 1510 753  " stroke-width="2" stroke="#0099cc" fill="none" />
  <path d="M 1231.5 363.5  A 3.5 3.5 0 0 0 1228 367 A 3.5 3.5 0 0 0 1231.5 370.5 A 3.5 3.5 0 0 0 1235 367 A 3.5 3.5 0 0 0 1231.5 363.5 Z M 1504.89289321881 748.707106781187  L 1509.18578643763 753  L 1504.89289321881 757.292893218813  L 1506.30710678119 758.707106781187  L 1511.30710678119 753.707106781187  L 1512.01421356237 753  L 1511.30710678119 752.292893218813  L 1506.30710678119 747.292893218813  L 1504.89289321881 748.707106781187  Z " fill-rule="nonzero" fill="#0099cc" stroke="none" />
</svg>