<?xml version="1.0" encoding="utf-8"?>
<svg version="1.1" xmlns:xlink="http://www.w3.org/1999/xlink" width="6px" height="2px" xmlns="http://www.w3.org/2000/svg">
  <g transform="matrix(1 0 0 1 -206 -183 )">
    <path d="M 5.88068181818182 0.145833333333333  C 5.96022727272727 0.243055555555555  6 0.361111111111111  6 0.5  L 6 1.5  C 6 1.63888888888889  5.96022727272727 1.75694444444444  5.88068181818182 1.85416666666667  C 5.80113636363636 1.95138888888889  5.70454545454546 2  5.59090909090909 2  L 0.409090909090909 2  C 0.295454545454545 2  0.198863636363636 1.95138888888889  0.119318181818182 1.85416666666667  C 0.0397727272727273 1.75694444444444  0 1.63888888888889  0 1.5  L 0 0.5  C 0 0.361111111111111  0.0397727272727273 0.243055555555555  0.119318181818182 0.145833333333333  C 0.198863636363636 0.0486111111111107  0.295454545454545 0  0.409090909090909 0  L 5.59090909090909 0  C 5.70454545454546 0  5.80113636363636 0.0486111111111107  5.88068181818182 0.145833333333333  Z " fill-rule="nonzero" fill="#aaaaaa" stroke="none" transform="matrix(1 0 0 1 206 183 )" />
  </g>
</svg>