<?xml version="1.0" encoding="utf-8"?>
<svg version="1.1" xmlns:xlink="http://www.w3.org/1999/xlink" width="11px" height="13px" xmlns="http://www.w3.org/2000/svg">
  <g transform="matrix(1 0 0 1 -2266 -192 )">
    <path d="M 10.8260105400391 12.7918375253906  C 11.0558484609375 12.5202108916016  11.0558484609375 12.0759617138672  10.8238625214844 11.8043350927734  L 6.36672524511719 6.53427065332031  L 10.8238625214844 1.26674478125  C 10.9398554912109 1.12966218066406  10.9978519814453 0.951962514648438  10.9978519814453 0.771724268554688  C 10.9978519814453 0.594024602539063  10.9398554912109 0.413786369140625  10.8238625214844 0.276703768554688  C 10.5918765820313 0.00253856738281252  10.2181214501953 0.00253856738281252  9.98613552148437 0.276703768554688  L 5.52899824511719 5.54676820800781  L 1.07186096875 0.276703768554688  C 0.839875029296875 0.0025385673828125  0.466119897460938 0.0025385673828125  0.234133958007813 0.276703768554688  C 0.00214801855468752 0.550868969726563  0.00214801855468752 0.992579580078125  0.234133958007813 1.26674478125  L 4.69341925292969 6.53427065332031  L 0.234133958007813 11.8043350927734  C 0.00214801855468752 12.0785002939453  0.00214801855468752 12.5202109042969  0.234133958007813 12.7943760927734  C 0.466119897460938 13.06854128125  0.839875029296875 13.0685412939453  1.07186096875 12.7943760927734  L 5.52899824511719 7.52431165332031  L 9.98828354003906 12.7918375253906  C 10.1042765097656 12.9289201259766  10.254637765625 12.9974614326172  10.4071470400391 12.9974614326172  C 10.5575082958984 12.9974614326172  10.7100175703125 12.9289201259766  10.8260105400391 12.7918375253906  Z " fill-rule="nonzero" fill="#3399ff" stroke="none" transform="matrix(1 0 0 1 2266 192 )" />
  </g>
</svg>