<?xml version="1.0" encoding="utf-8"?>
<svg version="1.1" xmlns:xlink="http://www.w3.org/1999/xlink" width="13px" height="13px" xmlns="http://www.w3.org/2000/svg">
  <g transform="matrix(1 0 0 1 -2238 -192 )">
    <path d="M 3.25 8.66666666666667  L 3.25 11.9166666666667  L 9.75 11.9166666666667  L 9.75 8.66666666666667  L 3.25 8.66666666666667  Z M 10.8333333333333 8.39583333333333  L 10.8333333333333 11.9166666666667  L 11.9166666666667 11.9166666666667  L 11.9166666666667 4.33333333333333  C 11.9166666666667 4.25434027777778  11.8884548611111 4.14572482638889  11.83203125 4.00748697916667  C 11.7756076388889 3.86924913194444  11.7191840277778 3.77191840277778  11.6627604166667 3.71549479166667  L 9.28450520833333 1.33723958333333  C 9.22808159722222 1.28081597222222  9.13216145833333 1.22439236111111  8.99674479166667 1.16796875  C 8.861328125 1.11154513888889  8.75130208333333 1.08333333333333  8.66666666666667 1.08333333333333  L 8.66666666666667 4.60416666666667  C 8.66666666666667 4.82986111111111  8.58767361111111 5.02170138888889  8.4296875 5.1796875  C 8.27170138888889 5.33767361111111  8.07986111111111 5.41666666666667  7.85416666666667 5.41666666666667  L 2.97916666666667 5.41666666666667  C 2.75347222222222 5.41666666666667  2.56163194444444 5.33767361111111  2.40364583333333 5.1796875  C 2.24565972222222 5.02170138888889  2.16666666666667 4.82986111111111  2.16666666666667 4.60416666666667  L 2.16666666666667 1.08333333333333  L 1 1.08333333333333  L 1 11.9166666666667  L 2.16666666666667 11.9166666666667  L 2.16666666666667 8.39583333333333  C 2.16666666666667 8.17013888888889  2.24565972222222 7.97829861111111  2.40364583333333 7.8203125  C 2.56163194444444 7.66232638888889  2.75347222222222 7.58333333333333  2.97916666666667 7.58333333333333  L 10.0208333333333 7.58333333333333  C 10.2465277777778 7.58333333333333  10.4383680555556 7.66232638888889  10.5963541666667 7.8203125  C 10.7543402777778 7.97829861111111  10.8333333333333 8.17013888888889  10.8333333333333 8.39583333333333  Z M 7.5029296875 4.2529296875  C 7.55653211805556 4.19932725694444  7.58333333333333 4.13585069444444  7.58333333333333 4.0625  L 7.58333333333333 1.35416666666667  C 7.58333333333333 1.28081597222222  7.55653211805556 1.21733940972222  7.5029296875 1.16373697916667  C 7.44932725694444 1.11013454861111  7.38585069444444 1.08333333333333  7.3125 1.08333333333333  L 5.6875 1.08333333333333  C 5.61414930555556 1.08333333333333  5.55067274305556 1.11013454861111  5.4970703125 1.16373697916667  C 5.44346788194444 1.21733940972222  5.41666666666667 1.28081597222222  5.41666666666667 1.35416666666667  L 5.41666666666667 4.0625  C 5.41666666666667 4.13585069444444  5.44346788194444 4.19932725694444  5.4970703125 4.2529296875  C 5.55067274305556 4.30653211805556  5.61414930555556 4.33333333333333  5.6875 4.33333333333333  L 7.3125 4.33333333333333  C 7.38585069444444 4.33333333333333  7.44932725694444 4.30653211805556  7.5029296875 4.2529296875  Z M 12.8307291666667 3.58854166666667  C 12.9435763888889 3.859375  13 4.10763888888889  13 4.33333333333333  L 13 12.1875  C 13 12.4131944444444  12.9210069444444 12.6050347222222  12.7630208333333 12.7630208333333  C 12.6050347222222 12.9210069444444  12.4131944444444 13  12.1875 13  L 0.8125 13  C 0.586805555555556 13  0.394965277777778 12.9210069444444  0.236979166666667 12.7630208333333  C 0.0789930555555556 12.6050347222222  0 12.4131944444444  0 12.1875  L 0 0.8125  C 0 0.586805555555555  0.0789930555555556 0.394965277777776  0.236979166666667 0.236979166666666  C 0.394965277777778 0.0789930555555549  0.586805555555556 0  0.8125 0  L 8.66666666666667 0  C 8.89236111111111 0  9.140625 0.0564236111111098  9.41145833333333 0.169270833333334  C 9.68229166666667 0.282118055555555  9.89670138888889 0.417534722222221  10.0546875 0.575520833333334  L 12.4244791666667 2.9453125  C 12.5824652777778 3.10329861111111  12.7178819444444 3.31770833333333  12.8307291666667 3.58854166666667  Z " fill-rule="nonzero" fill="#3399ff" stroke="none" transform="matrix(1 0 0 1 2238 192 )" />
  </g>
</svg>